<?xml version="1.0" encoding="UTF-8"?>
<svg width="3500px" height="600px" viewBox="0 0 3500 600" version="1.1" xmlns="http://www.w3.org/2000/svg" xmlns:xlink="http://www.w3.org/1999/xlink">
    <!-- Generator: Sketch 59.1 (86144) - https://sketch.com -->
    <title>Logo</title>
    <desc>Created with Sketch.</desc>
    <g id="Logo" stroke="none" stroke-width="1" fill="none" fill-rule="evenodd">
        <polygon id="Path" fill="#D4E1F4" fill-rule="nonzero" points="151.61875 229.216071 317.255357 133.586607 299.821429 123.520536 133.761607 219.394643"></polygon>
        <polygon id="Path" fill="#D4E1F4" fill-rule="nonzero" points="145.357143 413.954464 145.357143 240.583036 127.5 230.2125 127.5 421.990179 293.571429 517.870536 293.571429 499.525893"></polygon>
        <path d="M234.196429,281.358929 C232.262721,282.475355 231.071485,284.538575 231.071429,286.771429 L231.071429,392.321429 L218.433036,377.965179 C216.599048,375.955879 213.709007,375.29889 211.186607,376.317857 L198.035714,381.683036 L198.035714,263.915179 L373.638393,162.627679 L367.473214,151.801786 L188.7875,254.892857 C186.822805,255.995587 185.586443,258.053815 185.535714,260.30625 L185.535714,391.026786 C185.613422,393.134788 186.712142,395.073098 188.480897,396.22254 C190.249651,397.371982 192.467139,397.58874 194.425,396.803571 L211.958036,389.579464 L232.608929,413.013393 C234.330059,414.966466 237.079832,415.651329 239.515953,414.733667 C241.952073,413.816005 243.566609,411.48715 243.571429,408.883929 L243.571429,290.379464 L419.325893,188.908036 L413.075893,178.082143 L234.196429,281.358929 Z" id="Path" fill="#FA7272" fill-rule="nonzero"></path>
        <path d="M481.517857,213.989286 L302.946429,110.892857 C301.012672,109.776402 298.630185,109.776402 296.696429,110.892857 L118.125,213.989286 C116.191292,215.105712 115,217.168933 115,219.401786 L115,425.598214 C115,427.831067 116.191292,429.894288 118.125,431.010714 L296.696429,534.107143 C298.630432,535.222678 301.012425,535.222678 302.946429,534.107143 L481.517857,431.008036 C483.451565,429.891609 484.642857,427.828389 484.642857,425.595536 L484.642857,219.401786 C484.642857,217.168933 483.451565,215.105712 481.517857,213.989286 Z M299.821429,123.520536 L465.880357,219.394643 L299.821429,315.267857 L133.7625,219.394643 L299.821429,123.520536 Z M127.5,230.2125 L293.571429,326.094643 L293.571429,517.871429 L127.5,421.990179 L127.5,230.2125 Z M306.071429,517.871429 L306.071429,326.094643 L472.142857,230.2125 L472.142857,421.990179 L306.071429,517.871429 Z" id="Shape" fill="#0761B5" fill-rule="nonzero"></path>
        <circle id="Oval-Copy-3" stroke="#0761B5" stroke-width="5" cx="300" cy="300" r="297.5"></circle>
        <circle id="Oval-Copy-4" stroke="#0761B5" stroke-width="5" cx="300.5" cy="300.5" r="285"></circle>
        <path d="M300,50 C213.908627,50 137.981103,93.5166085 93.0138366,159.753417" id="Oval-Copy-4" stroke="#0761B5" stroke-width="10" stroke-linecap="round"></path>
        <text id="Product-Lens-Blog" font-family="Nunito-Regular, Nunito" font-size="400" font-weight="normal" letter-spacing="-30" fill="#0761B5">
            <tspan x="650" y="404">Product Lens Blog</tspan>
        </text>
    </g>
</svg>